<svg version="1.1" xmlns="http://www.w3.org/2000/svg" x="0px" y="0px"
	 width="100%" viewBox="30 270 955 630" xml:space="preserve">
<path fill="#FFFFFF" stroke="none" 
	d="
M795.059753,282.790131 
	C825.067261,282.135040 854.425415,283.691437 883.762329,287.351044 
	C909.676331,290.583588 935.771179,292.364990 961.784119,294.808533 
	C965.709961,295.177307 969.624878,295.662506 973.639832,296.104309 
	C973.510803,299.122406 971.335449,300.306519 969.577759,301.683685 
	C925.258484,336.407379 891.677795,379.829895 865.942566,429.599640 
	C860.992310,439.172943 861.074585,439.257690 850.616516,438.288452 
	C822.916321,435.721252 795.181702,433.941956 767.340393,434.319855 
	C741.099060,434.675964 715.305054,438.320465 689.718262,444.075409 
	C651.727844,452.620178 616.097961,466.485016 585.120850,490.521362 
	C568.078735,503.745026 555.605042,520.915100 544.517212,539.426880 
	C507.540222,601.161865 469.985870,662.551086 432.666473,724.081055 
	C431.564606,725.897705 430.615021,727.806763 429.286469,730.235779 
	C435.318787,732.364319 441.168610,732.173279 446.825165,732.586121 
	C467.574097,734.100403 488.262085,736.202576 508.947662,738.370239 
	C516.890930,739.202637 524.864075,739.748535 532.809753,740.560364 
	C535.785706,740.864441 536.895813,739.040405 538.031189,736.872559 
	C554.186340,706.026917 571.449402,675.789062 588.278198,645.312683 
	C597.619385,628.396057 606.862122,611.425049 616.169556,594.489746 
	C630.697144,568.056396 653.297791,550.879333 680.322571,538.919678 
	C706.176086,527.478333 733.544556,522.474731 761.506897,519.479492 
	C782.139282,517.269470 802.759155,517.901733 823.395935,517.670593 
	C829.176025,517.605835 829.450500,517.975586 828.313721,523.679626 
	C823.007935,550.302307 819.341309,577.148987 817.351868,604.217957 
	C817.111633,607.486267 815.323364,607.976624 812.718872,607.972351 
	C798.553467,607.948914 784.399719,608.334534 770.268433,609.350037 
	C742.735168,611.328613 715.723633,615.688782 690.343506,627.248596 
	C671.761047,635.712158 657.079102,648.610718 646.739319,666.279175 
	C621.243896,709.845581 595.777649,753.429077 570.340393,797.029541 
	C553.550903,825.807373 536.833069,854.626953 520.077515,883.424500 
	C519.499084,884.418640 519.031067,885.543762 516.925293,886.061951 
	C406.625458,768.709534 299.729980,647.690186 189.615875,529.515442 
	C195.877686,544.145325 206.129089,556.587097 212.984741,572.202820 
	C155.832901,577.735962 99.705650,585.494385 42.970688,591.759644 
	C43.751820,588.544434 45.658905,587.349731 47.208763,585.938965 
	C91.442932,545.674927 135.702118,505.438324 179.947479,465.186554 
	C189.188568,456.779572 198.410522,448.351257 207.593552,439.881042 
	C209.202255,438.397217 210.563614,437.735413 212.880768,438.719360 
	C231.885803,446.789490 250.922394,454.787567 270.011322,462.657318 
	C317.896362,482.398712 365.799377,502.096832 413.745911,521.688171 
	C417.570038,523.250793 417.689148,525.166504 416.413849,528.592346 
	C404.273224,561.205627 392.362091,593.904724 379.336548,626.182556 
	C378.322998,628.694214 376.982361,631.204163 377.077393,634.352539 
	C379.562897,633.431519 380.248505,631.404053 381.250641,629.800049 
	C401.727325,597.024597 422.078217,564.170410 442.592865,531.418823 
	C470.358002,487.091858 497.668945,442.464783 526.286194,398.693054 
	C543.429932,372.470642 567.852112,353.442474 594.679199,337.555420 
	C637.405029,312.253052 683.887207,297.816254 732.565369,289.584656 
	C753.112488,286.110046 773.788696,284.036926 795.059753,282.790131 
z"/>
</svg>
